<?xml version="1.0" encoding="iso-8859-1"?>
<!-- Generator: Adobe Illustrator 19.0.0, SVG Export Plug-In . SVG Version: 6.00 Build 0)  -->
<svg version="1.1" id="Capa_1" xmlns="http://www.w3.org/2000/svg" xmlns:xlink="http://www.w3.org/1999/xlink" x="0px" y="0px"
	 viewBox="0 0 489.09 489.09" style="enable-background:new 0 0 489.09 489.09;" xml:space="preserve">
<g>
	<g>
		<path d="M466.682,378.6l-64.6-131.4c-5.2-10.4-16.7-14.6-27.1-9.4c-10.4,5.2-14.6,16.7-9.4,27.1l64.6,131.4
			c2.4,4.4-2.1,4.2-2.1,4.2h-86l12-13.6c7.3-8.3,6.3-21.9-2.1-29.2c-8.3-7.3-21.9-6.3-29.2,2.1l-44.8,51.1
			c-4.2,4.2-5.2,9.4-5.2,14.6c1,6.3,3.1,11.5,7.3,14.6l52.1,43.8c13.4,10.2,25,3.1,28.1-2.1c7.3-9.4,6.3-21.9-2.1-29.2l-12.2-10.4
			h82.1c14.6,0,28.1-8.3,36.5-20.9C472.882,407.8,472.882,392.1,466.682,378.6z"/>
		<path d="M199.782,400.5h-137.6c-5.1,0.4-3.1-4.2-3.1-4.2l51.3-101l7.1,18.6c7,17.1,24,13.6,25,12.5c11.5-4.2,16.7-15.6,12.5-26.1
			l-22.9-62.6c-4.2-11.5-15.6-16.7-26.1-12.5l-62.6,22.9c-11.5,4.2-16.7,15.6-12.5,26.1c4.2,11.5,15.6,16.7,26.1,12.5l15.1-5.8
			l-49.6,97.7c-6.3,13.6-6.3,29.2,2.1,42.7c8.3,13.6,21.9,20.9,37.5,20.9h137.6c10.4,0,19.8-9.4,20.9-20.9
			C220.582,409.8,211.182,400.5,199.782,400.5z"/>
		<path d="M354.082,176.3l22.9-62.6c3.1-10.4-2.1-21.9-12.5-26.1c-10.4-3.1-21.9,2.1-26.1,12.5l-7.1,18.5l-46.1-94.6
			c-7.3-14.6-21.9-24-38.6-24c-15.6,0-31.3,9.4-38.6,24l-62.4,124.2c-5.2,9.4-1,21.9,9.4,27.1c9.4,4.2,21.9,1,27.1-9.4l62.5-124.1
			c1.9-5,5.2,0,5.2,0l45.2,92l-17.1-6.5c-10.4-3.1-21.9,2.1-26.1,12.5c-3.1,10.4,2.1,21.9,12.5,26.1l62.6,22.9
			C341.482,193.6,351.682,183.7,354.082,176.3z"/>
	</g>
</g>
<g>
</g>
<g>
</g>
<g>
</g>
<g>
</g>
<g>
</g>
<g>
</g>
<g>
</g>
<g>
</g>
<g>
</g>
<g>
</g>
<g>
</g>
<g>
</g>
<g>
</g>
<g>
</g>
<g>
</g>
</svg>
